<svg xmlns="http://www.w3.org/2000/svg" width="46" height="40" viewBox="0 0 46 40"><path fill="#FDB813" fill-rule="evenodd" d="M59.0239,12.821 L62.1289,7.44296 L92.3789,7.44296 L93.1549,8.78596 L95.4839,12.821 L59.0239,12.821 L59.0239,12.821 Z M63.3169,5.38496 L66.4249,0.00195312 L88.0819,0.00195312 L91.1899,5.38496 L63.3169,5.38496 Z M88.0829,35.1389 L70.3899,35.1389 C70.0479,35.1389 69.7599,35.316 69.6029,35.58 L67.4479,39.313 L61.2999,39.313 L66.3709,30.53 C66.6009,30.131 67.2189,29.808 67.7499,29.808 L91.1569,29.814 L88.0829,35.1389 L88.0829,35.1389 Z M95.4639,22.3549 L92.3449,27.757 L66.0399,27.757 C65.7039,27.757 65.4229,27.923 65.2629,28.174 L63.1379,31.854 L56.9899,31.854 L62.0609,23.072 C62.2909,22.673 62.9089,22.3499 63.4399,22.3499 L95.4639,22.3549 Z M61.6949,20.298 C61.3649,20.298 61.0769,20.475 60.9199,20.739 L58.8199,24.3759 L52.6719,24.3759 L57.7419,15.595 C57.9719,15.196 58.5899,14.8719 59.1209,14.8719 L96.6709,14.88 L98.2249,17.571 L96.6509,20.297 L61.7259,20.297 L61.6949,20.298 L61.6949,20.298 Z" transform="translate(-52.399 .627)"></path></svg>